<svg xmlns="http://www.w3.org/2000/svg" width="119.664" height="40">
  <path d="M110.135 0H9.535c-.367 0-.73 0-1.095.002-.306.002-.61.008-.919.013A13.215 13.215 0 0 0 5.517.19a6.665 6.665 0 0 0-1.9.627 6.438 6.438 0 0 0-1.62 1.18A6.258 6.258 0 0 0 .82 3.617 6.601 6.601 0 0 0 .195 5.52a12.993 12.993 0 0 0-.179 2.002c-.009.306-.01.613-.015.919V31.56c.005.305.006.613.015.921.008.674.068 1.343.18 2.002a6.592 6.592 0 0 0 .624 1.905A6.27 6.27 0 0 0 1.998 38a6.397 6.397 0 0 0 1.618 1.179 6.666 6.666 0 0 0 1.901.63 13.455 13.455 0 0 0 2.004.177c.31.007.613.011.919.011.366.002.728.002 1.095.002h100.6c.36 0 .724 0 1.084-.002.304 0 .617-.004.922-.01a13.279 13.279 0 0 0 2-.178 6.804 6.804 0 0 0 1.908-.63A6.277 6.277 0 0 0 117.666 38a6.395 6.395 0 0 0 1.182-1.614 6.604 6.604 0 0 0 .619-1.905 13.506 13.506 0 0 0 .185-2.002c.004-.308.004-.616.004-.921.008-.364.008-.725.008-1.094V9.536c0-.366 0-.729-.008-1.092 0-.306 0-.614-.004-.92a13.507 13.507 0 0 0-.185-2.003 6.618 6.618 0 0 0-.619-1.903 6.466 6.466 0 0 0-2.798-2.8 6.768 6.768 0 0 0-1.908-.627 13.044 13.044 0 0 0-2-.176c-.305-.005-.618-.011-.922-.013-.36-.002-.725-.002-1.084-.002z" fill="#A6A6A6"/>
  <path d="M8.445 39.125c-.305 0-.602-.004-.904-.01a12.687 12.687 0 0 1-1.87-.164 5.884 5.884 0 0 1-1.656-.548 5.406 5.406 0 0 1-1.397-1.016 5.32 5.32 0 0 1-1.02-1.397 5.722 5.722 0 0 1-.544-1.657 12.414 12.414 0 0 1-.166-1.875c-.007-.21-.015-.913-.015-.913v-23.1s.009-.692.015-.895a12.37 12.37 0 0 1 .165-1.872 5.755 5.755 0 0 1 .544-1.662 5.373 5.373 0 0 1 1.015-1.398 5.565 5.565 0 0 1 1.402-1.023 5.823 5.823 0 0 1 1.653-.544A12.586 12.586 0 0 1 7.543.887l.902-.012h102.769l.913.013a12.385 12.385 0 0 1 1.858.162 5.938 5.938 0 0 1 1.671.548 5.594 5.594 0 0 1 2.415 2.42 5.763 5.763 0 0 1 .535 1.649 12.995 12.995 0 0 1 .174 1.887c.003.283.003.588.003.89.008.375.008.732.008 1.092v20.929c0 .363 0 .718-.008 1.075 0 .325 0 .623-.004.93a12.731 12.731 0 0 1-.17 1.853 5.739 5.739 0 0 1-.54 1.67 5.48 5.48 0 0 1-1.016 1.386 5.413 5.413 0 0 1-1.4 1.022 5.862 5.862 0 0 1-1.668.55 12.542 12.542 0 0 1-1.869.163c-.293.007-.6.011-.897.011l-1.084.002z"/>
  <g fill="#FFF">
    <g>
      <path d="M24.769 20.3a4.949 4.949 0 0 1 2.356-4.151 5.066 5.066 0 0 0-3.99-2.158c-1.68-.176-3.308 1.005-4.164 1.005-.872 0-2.19-.988-3.608-.958a5.315 5.315 0 0 0-4.473 2.728c-1.934 3.348-.491 8.269 1.361 10.976.927 1.325 2.01 2.805 3.428 2.753 1.387-.058 1.905-.885 3.58-.885 1.658 0 2.144.885 3.59.852 1.489-.025 2.426-1.332 3.32-2.67a10.962 10.962 0 0 0 1.52-3.092 4.782 4.782 0 0 1-2.92-4.4zm-2.732-8.09a4.872 4.872 0 0 0 1.115-3.49 4.957 4.957 0 0 0-3.208 1.66 4.636 4.636 0 0 0-1.144 3.36 4.1 4.1 0 0 0 3.237-1.53z"/>
    </g>
    <path d="M42.302 27.14H37.57l-1.137 3.356h-2.005l4.484-12.418h2.083l4.483 12.418h-2.039zm-4.243-1.55h3.752l-1.85-5.446h-.052zm17.101.38c0 2.813-1.506 4.62-3.779 4.62a3.07 3.07 0 0 1-2.848-1.583h-.043v4.484h-1.86V21.442h1.8v1.506h.033a3.212 3.212 0 0 1 2.883-1.6c2.298 0 3.813 1.816 3.813 4.622zm-1.91 0c0-1.833-.948-3.038-2.393-3.038-1.42 0-2.375 1.23-2.375 3.038 0 1.824.955 3.046 2.375 3.046 1.445 0 2.393-1.197 2.393-3.046zm11.875 0c0 2.813-1.506 4.62-3.779 4.62a3.07 3.07 0 0 1-2.848-1.583h-.043v4.484h-1.859V21.442h1.799v1.506h.034a3.212 3.212 0 0 1 2.883-1.6c2.298 0 3.813 1.816 3.813 4.622zm-1.91 0c0-1.833-.948-3.038-2.393-3.038-1.42 0-2.375 1.23-2.375 3.038 0 1.824.955 3.046 2.375 3.046 1.445 0 2.392-1.197 2.392-3.046zm11.876 1.036c.138 1.232 1.334 2.04 2.97 2.04 1.566 0 2.693-.808 2.693-1.919 0-.964-.68-1.54-2.29-1.936l-1.609-.388c-2.28-.55-3.339-1.617-3.339-3.348 0-2.142 1.867-3.614 4.519-3.614 2.624 0 4.423 1.472 4.483 3.614h-1.876c-.112-1.239-1.136-1.987-2.634-1.987s-2.521.757-2.521 1.858c0 .878.654 1.395 2.255 1.79l1.368.336c2.548.603 3.606 1.626 3.606 3.443 0 2.323-1.85 3.778-4.793 3.778-2.754 0-4.614-1.42-4.734-3.667zM83.346 19.3v2.142h1.722v1.472h-1.722v4.991c0 .776.345 1.137 1.102 1.137a5.808 5.808 0 0 0 .611-.043v1.463a5.104 5.104 0 0 1-1.032.086c-1.833 0-2.548-.689-2.548-2.445v-5.189h-1.316v-1.472h1.316V19.3zm2.719 6.67c0-2.849 1.678-4.639 4.294-4.639 2.625 0 4.295 1.79 4.295 4.639 0 2.856-1.661 4.638-4.295 4.638-2.633 0-4.294-1.782-4.294-4.638zm6.695 0c0-1.954-.895-3.108-2.401-3.108s-2.401 1.162-2.401 3.108c0 1.962.895 3.106 2.401 3.106s2.401-1.144 2.401-3.106zm3.426-4.528h1.773v1.541h.043a2.16 2.16 0 0 1 2.177-1.635 2.866 2.866 0 0 1 .637.069v1.738a2.598 2.598 0 0 0-.835-.112 1.873 1.873 0 0 0-1.937 2.083v5.37h-1.858zm13.198 6.395c-.25 1.643-1.85 2.771-3.898 2.771-2.634 0-4.269-1.764-4.269-4.595 0-2.84 1.644-4.682 4.19-4.682 2.506 0 4.08 1.72 4.08 4.466v.637h-6.394v.112a2.358 2.358 0 0 0 2.436 2.564 2.048 2.048 0 0 0 2.09-1.273zm-6.282-2.702h4.526a2.177 2.177 0 0 0-2.22-2.298 2.292 2.292 0 0 0-2.306 2.298z"/>
  </g>
  <path d="M37.826 8.731a2.64 2.64 0 0 1 2.808 2.965c0 1.906-1.03 3.002-2.808 3.002h-2.155V8.73zm-1.228 5.123h1.125a1.876 1.876 0 0 0 1.967-2.146 1.881 1.881 0 0 0-1.967-2.134h-1.125zm5.112-1.305c0-1.583.947-2.559 2.428-2.559 1.48 0 2.428.976 2.428 2.559 0 1.582-.948 2.559-2.428 2.559-1.481 0-2.428-.977-2.428-2.559zm3.87 0c0-.904-.39-1.461-1.442-1.461-1.051 0-1.442.557-1.442 1.461 0 .904.39 1.462 1.442 1.462 1.051 0 1.442-.558 1.442-1.462zm6.27-2.559h.982l-2.01 5.579h-.991l-2.01-5.579h.991l1.52 4.223h.047zm3.216 0h.943v5.579h-.943zm5.09 0h.94v4.879h2.17v.7h-3.11zm7.192 0h.942v4.879h2.17v.7h-3.112zm8.69 0h3.253v.709h-2.31v1.667h2.235v.71h-2.236v2.493h-.943zm5.104 0h3.068v.709h-2.125v1.578h2.093v.7h-2.093v1.883h2.27v.709h-3.213zm8.503 0h.943l1.442 4.168h.047l1.443-4.168h.933l-2.01 5.579h-.778zm6.2 0h3.253v.709h-2.31v1.667h2.236v.71h-2.236v2.493h-.943z" fill="#000"/>
</svg>
