<svg xmlns="http://www.w3.org/2000/svg" width="135" height="40" viewBox="0 0 135 40">
  <defs>
    <linearGradient id="a" x1="21.8" y1="173.29" x2="5.02" y2="156.51" gradientTransform="matrix(1 0 0 -1 0 182)" gradientUnits="userSpaceOnUse">
      <stop offset="0" stop-color="#00a0ff"/>
      <stop offset=".01" stop-color="#00a1ff"/>
      <stop offset=".26" stop-color="#00beff"/>
      <stop offset=".51" stop-color="#00d2ff"/>
      <stop offset=".76" stop-color="#00dfff"/>
      <stop offset="1" stop-color="#00e3ff"/>
    </linearGradient>
    <linearGradient id="b" x1="33.83" y1="162" x2="9.64" y2="162" gradientTransform="matrix(1 0 0 -1 0 182)" gradientUnits="userSpaceOnUse">
      <stop offset="0" stop-color="#ffe000"/>
      <stop offset=".41" stop-color="#ffbd00"/>
      <stop offset=".78" stop-color="#ffa500"/>
      <stop offset="1" stop-color="#ff9c00"/>
    </linearGradient>
    <linearGradient id="c" x1="24.83" y1="159.7" x2="2.07" y2="136.95" gradientTransform="matrix(1 0 0 -1 0 182)" gradientUnits="userSpaceOnUse">
      <stop offset="0" stop-color="#ff3a44"/>
      <stop offset="1" stop-color="#c31162"/>
    </linearGradient>
    <linearGradient id="d" x1="7.3" y1="181.82" x2="17.46" y2="171.66" gradientTransform="matrix(1 0 0 -1 0 182)" gradientUnits="userSpaceOnUse">
      <stop offset="0" stop-color="#32a071"/>
      <stop offset=".07" stop-color="#2da771"/>
      <stop offset=".48" stop-color="#15cf74"/>
      <stop offset=".8" stop-color="#06e775"/>
      <stop offset="1" stop-color="#00f076"/>
    </linearGradient>
  </defs>
  <path fill="#A6A6A6" d="M130 40H5a5 5 0 0 1-5-5V5a5 5 0 0 1 5-5h125a5 5 0 0 1 5 5v30a5 5 0 0 1-5 5z"/>
  <path d="M130 .8a4.2 4.2 0 0 1 4.2 4.2v30a4.2 4.2 0 0 1-4.2 4.2H5A4.2 4.2 0 0 1 .8 35V5A4.2 4.2 0 0 1 5 .8h125m0-.8H5a5 5 0 0 0-5 5v30a5 5 0 0 0 5 5h125a5 5 0 0 0 5-5V5a5 5 0 0 0-5-5z" fill="#A6A6A6"/>
  <path d="M47.42 10.24a2.71 2.71 0 0 1-.75 2 2.91 2.91 0 0 1-2.2.89 3.15 3.15 0 0 1-2.21-5.37 3 3 0 0 1 2.21-.9 3.1 3.1 0 0 1 1.23.25 2.47 2.47 0 0 1 .94.67l-.53.53a2 2 0 0 0-1.64-.71 2.32 2.32 0 0 0-2.33 2.4 2.36 2.36 0 0 0 4 1.73 1.89 1.89 0 0 0 .5-1.22h-2.17V9.79h2.91a2.54 2.54 0 0 1 .04.45zm4.51-2.78h-2.7v1.9h2.46v.72H49.23v1.9h2.7v.74h-3.48V6.74h3.48zm3.36 5.26h-.77V7.47h-1.68V6.74h4.12v.73h-1.67zm4.52 0V6.74h.77v5.26zm4.24 0h-.77V7.47h-1.68V6.74h4.12v.73h-1.67zm9.78-.77a3.12 3.12 0 0 1-4.4 0 3.24 3.24 0 0 1 0-4.47 3.1 3.1 0 0 1 4.4 0 3.23 3.23 0 0 1 0 4.47zm-3.83-.5a2.31 2.31 0 0 0 3.26 0 2.56 2.56 0 0 0 0-3.47 2.31 2.31 0 0 0-3.26 0 2.56 2.56 0 0 0 0 3.47zm5.8 1.27V6.74h.93l2.92 4.67V6.74h.77v5.26h-.8l-3.05-4.89v4.89z"/>
  <path d="M68.14 21.75A4.25 4.25 0 1 0 72.41 26a4.19 4.19 0 0 0-4.27-4.25zm0 6.83a2.58 2.58 0 1 1 2.4-2.58 2.46 2.46 0 0 1-2.4 2.58zm-9.31-6.83A4.25 4.25 0 1 0 63.09 26a4.19 4.19 0 0 0-4.27-4.25h.01zm0 6.83A2.58 2.58 0 1 1 61.22 26a2.46 2.46 0 0 1-2.4 2.58h.01zm-11.09-5.52v1.8h4.32a3.77 3.77 0 0 1-1 2.27 4.42 4.42 0 0 1-3.33 1.32 4.8 4.8 0 0 1 0-9.6A4.6 4.6 0 0 1 51 20.14l1.27-1.27a6.29 6.29 0 0 0-4.53-1.82 6.61 6.61 0 1 0 0 13.21 6.07 6.07 0 0 0 4.61-1.85 6 6 0 0 0 1.56-4.22 5.87 5.87 0 0 0-.1-1.13zm45.31 1.4a4 4 0 0 0-3.64-2.71 4.001 4.001 0 0 0-4 4.25 4.16 4.16 0 0 0 4.22 4.25 4.23 4.23 0 0 0 3.54-1.88l-1.45-1a2.43 2.43 0 0 1-2.09 1.18 2.16 2.16 0 0 1-2.06-1.29l5.69-2.35zm-5.8 1.42a2.33 2.33 0 0 1 2.22-2.48 1.65 1.65 0 0 1 1.58.9zm-4.62 4.12h1.87V17.5h-1.87v12.38zm-3.06-7.21a3.06 3.06 0 0 0-2.22-.95 4.25 4.25 0 0 0 0 8.49 2.9 2.9 0 0 0 2.22-1v.61h1.87V21.51h-1.87zm-2.13 5.73a2.58 2.58 0 0 1 0-5.15A2.58 2.58 0 0 1 78.24 26zm24.38-10.86h-4.47v12.38h1.87v-4.68h2.61a3.89 3.89 0 1 0 0-7.7zm0 6h-2.61v-4.26h2.65a2.14 2.14 0 1 1 0 4.29zm11.53-1.8a3.49 3.49 0 0 0-3.33 1.91l1.66.69a1.77 1.77 0 0 1 1.7-.91 1.8 1.8 0 0 1 2 1.61v.13a4.13 4.13 0 0 0-1.95-.48c-1.79 0-3.6 1-3.6 2.81a2.89 2.89 0 0 0 3.1 2.75 2.63 2.63 0 0 0 2.4-1.2v1h1.82v-4.81c0-2.19-1.66-3.46-3.79-3.46h-.01zm-.23 6.85c-.61 0-1.46-.31-1.46-1.06 0-1 1.06-1.33 2-1.33a3.32 3.32 0 0 1 1.7.42 2.26 2.26 0 0 1-2.19 2zM123.74 22l-2.14 5.42h-.06L119.32 22h-2l3.33 7.58-1.9 4.21h1.95L125.82 22h-2.08zm-16.81 8h1.87V17.5h-1.87v12.5z" fill="#FFF"/>
  <path d="M10.44 7.54a2 2 0 0 0-.46 1.4v22.12a2 2 0 0 0 .46 1.4l.07.07L22.9 20.15v-.29L10.51 7.47l-.07.07z" fill="url(#a)"/>
  <path d="M27 24.28l-4.1-4.13v-.29l4.1-4.14.09.05L32 18.56c1.4.79 1.4 2.09 0 2.89l-4.89 2.78-.11.05z" fill="url(#b)"/>
  <path d="M27.12 24.22L22.9 20 10.44 32.46a1.63 1.63 0 0 0 2.08.06l14.61-8.3" fill="url(#c)"/>
  <path d="M27.12 15.78l-14.61-8.3a1.63 1.63 0 0 0-2.08.06L22.9 20l4.22-4.22z" fill="url(#d)"/>
</svg>
